<svg xmlns="http://www.w3.org/2000/svg" viewBox="0 0 64 64" role="img" aria-label="Sajtmaskin">
  <defs>
    <linearGradient id="g" x1="0" y1="0" x2="1" y2="1">
      <stop offset="0" stop-color="#14b8a6"/>
      <stop offset="1" stop-color="#0ea5e9"/>
    </linearGradient>
  </defs>
  <rect width="64" height="64" rx="14" fill="#000"/>
  <path
    d="M32 12c7.6 0 13.8 6.2 13.8 13.8 0 8.8-7.4 16.6-13.8 26.2C25.6 42.4 18.2 34.6 18.2 25.8 18.2 18.2 24.4 12 32 12Z"
    fill="url(#g)"
    opacity="0.95"
  />
  <path
    d="M27 28c0 2.8 2.2 5 5 5s5-2.2 5-5-2.2-5-5-5-5 2.2-5 5Z"
    fill="#000"
    opacity="0.55"
  />
  <path
    d="M20 44c4.4 2.4 8.4 3.6 12 3.6S39.6 46.4 44 44"
    fill="none"
    stroke="#22c55e"
    stroke-width="2.5"
    stroke-linecap="round"
    opacity="0.55"
  />
</svg>

